<svg width="18" height="18" viewBox="0 0 18 18" fill="none" xmlns="http://www.w3.org/2000/svg">
<path d="M9.00008 17.3332C7.86119 17.3332 6.7848 17.1143 5.77091 16.6765C4.75703 16.2393 3.87175 15.6421 3.11508 14.8848C2.35786 14.1282 1.76064 13.2429 1.32341 12.229C0.885637 11.2151 0.666748 10.1387 0.666748 8.99984C0.666748 7.84706 0.885637 6.76734 1.32341 5.76067C1.76064 4.75345 2.35786 3.8715 3.11508 3.11484C3.87175 2.35761 4.75703 1.76011 5.77091 1.32234C6.7848 0.885115 7.86119 0.666504 9.00008 0.666504C10.1529 0.666504 11.2326 0.885115 12.2392 1.32234C13.2465 1.76011 14.1284 2.35761 14.8851 3.11484C15.6423 3.8715 16.2395 4.75345 16.6767 5.76067C17.1145 6.76734 17.3334 7.84706 17.3334 8.99984V10.2082C17.3334 11.0276 17.0523 11.7254 16.4901 12.3015C15.9273 12.8782 15.2362 13.1665 14.4167 13.1665C13.9167 13.1665 13.4515 13.0554 13.0209 12.8332C12.5904 12.6109 12.2362 12.3193 11.9584 11.9582C11.5834 12.3332 11.1426 12.6284 10.6359 12.844C10.1287 13.059 9.58341 13.1665 9.00008 13.1665C7.8473 13.1665 6.8648 12.7601 6.05258 11.9473C5.2398 11.1351 4.83341 10.1526 4.83341 8.99984C4.83341 7.84706 5.2398 6.86428 6.05258 6.0515C6.8648 5.23928 7.8473 4.83317 9.00008 4.83317C10.1529 4.83317 11.1356 5.23928 11.9484 6.0515C12.7606 6.86428 13.1667 7.84706 13.1667 8.99984V10.2082C13.1667 10.6109 13.2917 10.9268 13.5417 11.1557C13.7917 11.3851 14.0834 11.4998 14.4167 11.4998C14.7501 11.4998 15.0417 11.3851 15.2917 11.1557C15.5417 10.9268 15.6667 10.6109 15.6667 10.2082V8.99984C15.6667 7.18039 15.0104 5.61428 13.6976 4.3015C12.3854 2.98928 10.8195 2.33317 9.00008 2.33317C7.18064 2.33317 5.61452 2.98928 4.30175 4.3015C2.98953 5.61428 2.33341 7.18039 2.33341 8.99984C2.33341 10.8193 2.98953 12.3851 4.30175 13.6973C5.61452 15.0101 7.18064 15.6665 9.00008 15.6665H13.1667V17.3332H9.00008ZM9.00008 11.4998C9.69452 11.4998 10.2848 11.2568 10.7709 10.7707C11.257 10.2846 11.5001 9.69428 11.5001 8.99984C11.5001 8.30539 11.257 7.71511 10.7709 7.229C10.2848 6.74289 9.69452 6.49984 9.00008 6.49984C8.30564 6.49984 7.71536 6.74289 7.22925 7.229C6.74314 7.71511 6.50008 8.30539 6.50008 8.99984C6.50008 9.69428 6.74314 10.2846 7.22925 10.7707C7.71536 11.2568 8.30564 11.4998 9.00008 11.4998Z" fill="#898989"/>
</svg>
