<svg width="18" height="18" viewBox="0 0 18 18" fill="none" xmlns="http://www.w3.org/2000/svg">
<path fill-rule="evenodd" clip-rule="evenodd" d="M12.7933 17.4442C11.5933 17.4001 8.19242 16.9301 4.63075 13.3692C1.06992 9.80756 0.600752 6.40756 0.555752 5.20672C0.489085 3.37672 1.89075 1.59922 3.50992 0.905058C3.7049 0.820863 3.91842 0.788808 4.12953 0.812037C4.34064 0.835266 4.54208 0.912982 4.71409 1.03756C6.04742 2.00922 6.96742 3.47922 7.75742 4.63506C7.93124 4.889 8.00556 5.19801 7.96622 5.50322C7.92687 5.80843 7.77662 6.0885 7.54409 6.29006L5.91825 7.49756C5.8397 7.55428 5.78441 7.63758 5.76265 7.73199C5.74089 7.8264 5.75413 7.92551 5.79992 8.01089C6.16825 8.68006 6.82325 9.67672 7.57325 10.4267C8.32409 11.1767 9.36742 11.8751 10.0833 12.2851C10.173 12.3354 10.2786 12.3495 10.3785 12.3244C10.4783 12.2993 10.5647 12.2369 10.6199 12.1501L11.6783 10.5392C11.8728 10.2808 12.1599 10.1076 12.4792 10.056C12.7986 10.0045 13.1256 10.0785 13.3916 10.2626C14.5641 11.0742 15.9324 11.9784 16.9341 13.2609C17.0688 13.4341 17.1545 13.6404 17.1822 13.8581C17.2099 14.0758 17.1786 14.2969 17.0916 14.4984C16.3941 16.1259 14.6291 17.5117 12.7933 17.4442Z" fill="#898989"/>
</svg>
